<svg xmlns="http://www.w3.org/2000/svg" xmlns:xlink="http://www.w3.org/1999/xlink" id="visual" viewBox="0 0 900 600" width="900" height="600" version="1.1"><rect x="0" y="0" width="900" height="600" fill="#D5EEBB"/><path d="M0 65L39 65L39 50L78 50L78 38L117 38L117 108L157 108L157 79L196 79L196 86L235 86L235 65L274 65L274 98L313 98L313 33L352 33L352 84L391 84L391 34L430 34L430 56L470 56L470 49L509 49L509 107L548 107L548 112L587 112L587 75L626 75L626 88L665 88L665 111L704 111L704 78L743 78L743 33L783 33L783 41L822 41L822 70L861 70L861 63L900 63L900 40L900 601L900 601L861 601L861 601L822 601L822 601L783 601L783 601L743 601L743 601L704 601L704 601L665 601L665 601L626 601L626 601L587 601L587 601L548 601L548 601L509 601L509 601L470 601L470 601L430 601L430 601L391 601L391 601L352 601L352 601L313 601L313 601L274 601L274 601L235 601L235 601L196 601L196 601L157 601L157 601L117 601L117 601L78 601L78 601L39 601L39 601L0 601Z" fill="#d5eebb"/><path d="M0 88L39 88L39 96L78 96L78 141L117 141L117 98L157 98L157 153L196 153L196 117L235 117L235 138L274 138L274 83L313 83L313 82L352 82L352 141L391 141L391 128L430 128L430 85L470 85L470 82L509 82L509 112L548 112L548 83L587 83L587 96L626 96L626 133L665 133L665 139L704 139L704 127L743 127L743 92L783 92L783 96L822 96L822 146L861 146L861 76L900 76L900 80L900 601L900 601L861 601L861 601L822 601L822 601L783 601L783 601L743 601L743 601L704 601L704 601L665 601L665 601L626 601L626 601L587 601L587 601L548 601L548 601L509 601L509 601L470 601L470 601L430 601L430 601L391 601L391 601L352 601L352 601L313 601L313 601L274 601L274 601L235 601L235 601L196 601L196 601L157 601L157 601L117 601L117 601L78 601L78 601L39 601L39 601L0 601Z" fill="#cdebb9"/><path d="M0 150L39 150L39 181L78 181L78 142L117 142L117 177L157 177L157 161L196 161L196 168L235 168L235 165L274 165L274 150L313 150L313 151L352 151L352 172L391 172L391 136L430 136L430 120L470 120L470 169L509 169L509 139L548 139L548 131L587 131L587 168L626 168L626 119L665 119L665 178L704 178L704 179L743 179L743 146L783 146L783 153L822 153L822 161L861 161L861 143L900 143L900 193L900 601L900 601L861 601L861 601L822 601L822 601L783 601L783 601L743 601L743 601L704 601L704 601L665 601L665 601L626 601L626 601L587 601L587 601L548 601L548 601L509 601L509 601L470 601L470 601L430 601L430 601L391 601L391 601L352 601L352 601L313 601L313 601L274 601L274 601L235 601L235 601L196 601L196 601L157 601L157 601L117 601L117 601L78 601L78 601L39 601L39 601L0 601Z" fill="#c5e7b6"/><path d="M0 164L39 164L39 165L78 165L78 219L117 219L117 188L157 188L157 192L196 192L196 199L235 199L235 219L274 219L274 203L313 203L313 221L352 221L352 233L391 233L391 185L430 185L430 225L470 225L470 164L509 164L509 183L548 183L548 192L587 192L587 190L626 190L626 227L665 227L665 219L704 219L704 203L743 203L743 239L783 239L783 201L822 201L822 167L861 167L861 215L900 215L900 189L900 601L900 601L861 601L861 601L822 601L822 601L783 601L783 601L743 601L743 601L704 601L704 601L665 601L665 601L626 601L626 601L587 601L587 601L548 601L548 601L509 601L509 601L470 601L470 601L430 601L430 601L391 601L391 601L352 601L352 601L313 601L313 601L274 601L274 601L235 601L235 601L196 601L196 601L157 601L157 601L117 601L117 601L78 601L78 601L39 601L39 601L0 601Z" fill="#bee4b4"/><path d="M0 280L39 280L39 239L78 239L78 277L117 277L117 244L157 244L157 240L196 240L196 245L235 245L235 271L274 271L274 281L313 281L313 228L352 228L352 244L391 244L391 231L430 231L430 251L470 251L470 237L509 237L509 225L548 225L548 212L587 212L587 217L626 217L626 257L665 257L665 263L704 263L704 281L743 281L743 264L783 264L783 226L822 226L822 276L861 276L861 212L900 212L900 215L900 601L900 601L861 601L861 601L822 601L822 601L783 601L783 601L743 601L743 601L704 601L704 601L665 601L665 601L626 601L626 601L587 601L587 601L548 601L548 601L509 601L509 601L470 601L470 601L430 601L430 601L391 601L391 601L352 601L352 601L313 601L313 601L274 601L274 601L235 601L235 601L196 601L196 601L157 601L157 601L117 601L117 601L78 601L78 601L39 601L39 601L0 601Z" fill="#b6e0b2"/><path d="M0 283L39 283L39 323L78 323L78 306L117 306L117 291L157 291L157 270L196 270L196 261L235 261L235 282L274 282L274 256L313 256L313 312L352 312L352 286L391 286L391 297L430 297L430 318L470 318L470 271L509 271L509 302L548 302L548 266L587 266L587 277L626 277L626 275L665 275L665 301L704 301L704 297L743 297L743 301L783 301L783 295L822 295L822 285L861 285L861 258L900 258L900 296L900 601L900 601L861 601L861 601L822 601L822 601L783 601L783 601L743 601L743 601L704 601L704 601L665 601L665 601L626 601L626 601L587 601L587 601L548 601L548 601L509 601L509 601L470 601L470 601L430 601L430 601L391 601L391 601L352 601L352 601L313 601L313 601L274 601L274 601L235 601L235 601L196 601L196 601L157 601L157 601L117 601L117 601L78 601L78 601L39 601L39 601L0 601Z" fill="#aeddb1"/><path d="M0 340L39 340L39 311L78 311L78 367L117 367L117 308L157 308L157 327L196 327L196 365L235 365L235 358L274 358L274 305L313 305L313 367L352 367L352 314L391 314L391 360L430 360L430 353L470 353L470 348L509 348L509 356L548 356L548 334L587 334L587 343L626 343L626 340L665 340L665 355L704 355L704 323L743 323L743 362L783 362L783 362L822 362L822 316L861 316L861 336L900 336L900 360L900 601L900 601L861 601L861 601L822 601L822 601L783 601L783 601L743 601L743 601L704 601L704 601L665 601L665 601L626 601L626 601L587 601L587 601L548 601L548 601L509 601L509 601L470 601L470 601L430 601L430 601L391 601L391 601L352 601L352 601L313 601L313 601L274 601L274 601L235 601L235 601L196 601L196 601L157 601L157 601L117 601L117 601L78 601L78 601L39 601L39 601L0 601Z" fill="#a6d9af"/><path d="M0 355L39 355L39 389L78 389L78 364L117 364L117 396L157 396L157 398L196 398L196 402L235 402L235 348L274 348L274 366L313 366L313 363L352 363L352 384L391 384L391 410L430 410L430 404L470 404L470 408L509 408L509 381L548 381L548 396L587 396L587 383L626 383L626 354L665 354L665 345L704 345L704 398L743 398L743 387L783 387L783 360L822 360L822 375L861 375L861 353L900 353L900 403L900 601L900 601L861 601L861 601L822 601L822 601L783 601L783 601L743 601L743 601L704 601L704 601L665 601L665 601L626 601L626 601L587 601L587 601L548 601L548 601L509 601L509 601L470 601L470 601L430 601L430 601L391 601L391 601L352 601L352 601L313 601L313 601L274 601L274 601L235 601L235 601L196 601L196 601L157 601L157 601L117 601L117 601L78 601L78 601L39 601L39 601L0 601Z" fill="#9ed6ae"/><path d="M0 412L39 412L39 431L78 431L78 436L117 436L117 435L157 435L157 437L196 437L196 416L235 416L235 401L274 401L274 427L313 427L313 413L352 413L352 412L391 412L391 419L430 419L430 401L470 401L470 444L509 444L509 391L548 391L548 395L587 395L587 433L626 433L626 413L665 413L665 428L704 428L704 398L743 398L743 402L783 402L783 450L822 450L822 431L861 431L861 433L900 433L900 443L900 601L900 601L861 601L861 601L822 601L822 601L783 601L783 601L743 601L743 601L704 601L704 601L665 601L665 601L626 601L626 601L587 601L587 601L548 601L548 601L509 601L509 601L470 601L470 601L430 601L430 601L391 601L391 601L352 601L352 601L313 601L313 601L274 601L274 601L235 601L235 601L196 601L196 601L157 601L157 601L117 601L117 601L78 601L78 601L39 601L39 601L0 601Z" fill="#97d2ac"/><path d="M0 437L39 437L39 445L78 445L78 450L117 450L117 448L157 448L157 476L196 476L196 473L235 473L235 457L274 457L274 494L313 494L313 448L352 448L352 480L391 480L391 477L430 477L430 471L470 471L470 490L509 490L509 450L548 450L548 487L587 487L587 450L626 450L626 461L665 461L665 468L704 468L704 477L743 477L743 466L783 466L783 483L822 483L822 452L861 452L861 463L900 463L900 472L900 601L900 601L861 601L861 601L822 601L822 601L783 601L783 601L743 601L743 601L704 601L704 601L665 601L665 601L626 601L626 601L587 601L587 601L548 601L548 601L509 601L509 601L470 601L470 601L430 601L430 601L391 601L391 601L352 601L352 601L313 601L313 601L274 601L274 601L235 601L235 601L196 601L196 601L157 601L157 601L117 601L117 601L78 601L78 601L39 601L39 601L0 601Z" fill="#8fcfab"/><path d="M0 526L39 526L39 506L78 506L78 536L117 536L117 537L157 537L157 493L196 493L196 533L235 533L235 495L274 495L274 486L313 486L313 505L352 505L352 520L391 520L391 488L430 488L430 484L470 484L470 512L509 512L509 524L548 524L548 501L587 501L587 534L626 534L626 500L665 500L665 536L704 536L704 524L743 524L743 525L783 525L783 533L822 533L822 482L861 482L861 505L900 505L900 513L900 601L900 601L861 601L861 601L822 601L822 601L783 601L783 601L743 601L743 601L704 601L704 601L665 601L665 601L626 601L626 601L587 601L587 601L548 601L548 601L509 601L509 601L470 601L470 601L430 601L430 601L391 601L391 601L352 601L352 601L313 601L313 601L274 601L274 601L235 601L235 601L196 601L196 601L157 601L157 601L117 601L117 601L78 601L78 601L39 601L39 601L0 601Z" fill="#87ccaa"/><path d="M0 557L39 557L39 559L78 559L78 533L117 533L117 529L157 529L157 553L196 553L196 559L235 559L235 549L274 549L274 564L313 564L313 545L352 545L352 540L391 540L391 547L430 547L430 561L470 561L470 545L509 545L509 552L548 552L548 538L587 538L587 525L626 525L626 527L665 527L665 529L704 529L704 567L743 567L743 579L783 579L783 525L822 525L822 530L861 530L861 568L900 568L900 550L900 601L900 601L861 601L861 601L822 601L822 601L783 601L783 601L743 601L743 601L704 601L704 601L665 601L665 601L626 601L626 601L587 601L587 601L548 601L548 601L509 601L509 601L470 601L470 601L430 601L430 601L391 601L391 601L352 601L352 601L313 601L313 601L274 601L274 601L235 601L235 601L196 601L196 601L157 601L157 601L117 601L117 601L78 601L78 601L39 601L39 601L0 601Z" fill="#7fc8a9"/></svg>